<svg xmlns="http://www.w3.org/2000/svg" width="80" height="41" fill="none" viewBox="0 0 80 41">
  <path fill="#083E48" d="M.346 38.885A6.654 6.654 0 0 1 0 38.477c.082-.043 1.68-.84 1.68-.84.839 1.025 1.831 1.556 3.132 1.556 1.523 0 2.31-.754 2.31-1.9 0-.924-.479-1.455-1.864-1.73l-1.062-.187c-2.31-.428-3.49-1.505-3.49-3.406 0-2.121 1.64-3.421 4.175-3.421 1.795 0 3.114.649 4.037 1.83 0 0-1.46.727-1.672.83-.585-.59-1.365-.95-2.468-.95-1.37 0-2.157.565-2.157 1.609 0 1.043.616 1.42 1.901 1.677l1.062.223c2.378.462 3.455 1.524 3.455 3.422 0 2.224-1.59 3.714-4.33 3.714-2.003 0-3.167-.695-4.363-2.019Zm11.024 1.814V28.754h1.934v10.234h4.86v1.71H11.37Zm8.783 0V28.754H27.8v1.71h-5.714v3.32h5.183v1.71h-5.183v3.491H27.8v1.711h-7.648v.003Zm9.639 0v-1.575h1.626v-8.795h-1.626v-1.575h5.201v1.575h-1.641v8.795h1.641v1.575h-5.201Zm7.635 0V28.754h5.133c2.19 0 3.473 1.42 3.473 3.593s-1.283 3.594-3.473 3.594h-3.2v4.755h-1.934v.003Zm1.934-6.451h3.08c.975 0 1.558-.531 1.558-1.488v-.82c0-.957-.583-1.488-1.557-1.488h-3.08v3.798-.002Zm12.017-.154-1.319-2.532h-.05V40.7h-1.85V28.754h2.157l3.901 6.604 1.319 2.532h.051v-9.139h1.847v11.945h-2.157l-3.902-6.605.003.003Zm9.008 6.605V28.754h7.649v1.71H62.32v3.32h5.184v1.71H62.32v3.491h5.715v1.711h-7.649v.003Zm12.086 0h-1.934V28.754h5.15c2.14 0 3.455 1.385 3.455 3.593 0 1.696-.802 2.875-2.326 3.32l2.583 5.03h-2.157l-2.396-4.826H72.47v4.825l.002.003Zm3.08-6.451c.975 0 1.557-.531 1.557-1.488v-.82c0-.957-.582-1.488-1.556-1.488h-3.081v3.798h3.08v-.002ZM39.767.904l3.719 7.387a5.686 5.686 0 0 0-7.439 0l3.72-7.387Z"/>
  <path fill="#28A1AD" d="m19.427 11.112 16.826 8.464a12.898 12.898 0 0 1 0-16.902l-16.826 8.438Zm40.628 0-16.8 8.464a12.898 12.898 0 0 0 0-16.902l16.8 8.438Z"/>
  <path fill="#083E48" d="m39.725 21.295-3.719-7.387a5.686 5.686 0 0 0 7.439 0l-3.72 7.387Z"/>
</svg>
